<svg id="SvgjsSvg1001" width="288" height="288" xmlns="http://www.w3.org/2000/svg" version="1.1" xmlns:xlink="http://www.w3.org/1999/xlink" xmlns:svgjs="http://svgjs.com/svgjs"><defs id="SvgjsDefs1002"></defs><g id="SvgjsG1008" transform="matrix(0.9167,0,0,0.9167,11.993501602355025,12.744901271057131)"><svg xmlns="http://www.w3.org/2000/svg" width="288" height="288" fill="currentColor" class="bi bi-cloud-sun" viewBox="0 0 16 16"><path d="M7 8a3.5 3.5 0 0 1 3.5 3.555.5.5 0 0 0 .624.492A1.503 1.503 0 0 1 13 13.5a1.5 1.5 0 0 1-1.5 1.5H3a2 2 0 1 1 .1-3.998.5.5 0 0 0 .51-.375A3.502 3.502 0 0 1 7 8zm4.473 3a4.5 4.5 0 0 0-8.72-.99A3 3 0 0 0 3 16h8.5a2.5 2.5 0 0 0 0-5h-.027z" fill="#e2f3f5" class="color000 svgShape"></path><path d="M10.5 1.5a.5.5 0 0 0-1 0v1a.5.5 0 0 0 1 0v-1zm3.743 1.964a.5.5 0 1 0-.707-.707l-.708.707a.5.5 0 0 0 .708.708l.707-.708zm-7.779-.707a.5.5 0 0 0-.707.707l.707.708a.5.5 0 1 0 .708-.708l-.708-.707zm1.734 3.374a2 2 0 1 1 3.296 2.198c.199.281.372.582.516.898a3 3 0 1 0-4.84-3.225c.352.011.696.055 1.028.129zm4.484 4.074c.6.215 1.125.59 1.522 1.072a.5.5 0 0 0 .039-.742l-.707-.707a.5.5 0 0 0-.854.377zM14.5 6.5a.5.5 0 0 0 0 1h1a.5.5 0 0 0 0-1h-1z" fill="#e2f3f5" class="color000 svgShape"></path></svg></g></svg>