<svg id="Layer_1" enable-background="new 0 0 512 512" height="512" viewBox="0 0 512 512" width="512" xmlns="http://www.w3.org/2000/svg"><g><path d="m258.378 242.27c-5.374-1.269-10.759 2.059-12.027 7.433-1.269 5.374 2.059 10.759 7.433 12.027 5.374 1.269 10.759-2.059 12.027-7.433 1.269-5.374-2.059-10.759-7.433-12.027z"/><circle cx="430.695" cy="226.78" r="10"/><path d="m256.081 50c-77.32 0-140 62.68-140 140s62.68 140 140 140 140-62.68 140-140-62.68-140-140-140zm0 260c-66.274 0-120-53.726-120-120s53.726-120 120-120 120 53.726 120 120-53.726 120-120 120z"/><path d="m428.811 110.76c-4.96-10.8-10.98-21.2-17.9-30.91-6.86-9.62-14.66-18.66-23.19-26.859-8.54-8.21-17.89-15.65-27.79-22.12-10-6.54-20.65-12.15-31.67-16.681-22.91-9.41-47.19-14.19-72.18-14.19-25.65 0-50.53 5.02-73.96 14.93-11.25 4.76-22.11 10.66-32.27 17.521-10.06 6.8-19.52 14.6-28.12 23.199-8.6 8.601-16.4 18.061-23.2 28.12-6.86 10.16-12.75 21.011-17.52 32.271-9.9 23.43-14.93 48.31-14.93 73.96.04 14.27 2.79 30.39 8.17 47.92 4.82 15.72 11.68 32.61 20.98 51.64 11.77 23.98 27.15 50.4 45.72 78.53 14.76 22.37 31.66 46.01 50.24 70.28 17.306 22.593 32.601 41.205 43.082 53.63h-60.191c-5.523 0-10 4.477-10 10s4.477 10 10 10h164c5.523 0 10-4.477 10-10s-4.477-10-10-10h-60.193c11.506-13.64 28.8-34.718 48.123-60.24 19.94-26.38 37.78-51.84 53.01-75.68 19.2-30.05 34.53-57.95 45.57-82.931 1.08-2.439 1.14-5.159.17-7.649-.96-2.49-2.84-4.46-5.28-5.53-1.29-.57-2.64-.86-4.04-.86-3.96 0-7.55 2.341-9.15 5.971-24.02 54.479-65.59 114.149-96.23 154.609-17.44 23.03-33.23 42.391-43.4 54.57-3.64 4.36-7.2 8.56-10.58 12.5-14.98-17.45-53.66-63.729-90.16-117.34-23.7-34.79-42.46-66.74-55.77-94.97-15.81-33.4-24.14-62.61-24.07-84.45 0-45.4 17.69-88.09 49.79-120.21 32.118-32.102 74.808-49.791 120.209-49.791h.03c91.38 0 165.97 71.46 169.82 162.689.22 5.37 4.825 9.575 10.195 9.575 2.67-.11 5.345-1.265 7.155-3.225 1.81-1.971 2.74-4.521 2.63-7.19-1.05-24.769-6.8-48.689-17.1-71.089z"/><path d="m255.697 108.003c-10.14 0-20.136 3.707-27.447 10.436-7.03 6.46-11.67 15.391-13.07 25.15-.38 2.64.3 5.28 1.9 7.41 1.6 2.14 3.94 3.52 6.58 3.899 2.86.41 5.77-.439 7.94-2.319 1.84-1.57 3.04-3.761 3.38-6.16.74-5.2 3.16-9.9 6.79-13.24 3.77-3.41 8.6-5.16 13.88-5.18 11.15.14 20.875 9.975 21.415 21.165-.06 6.75-2.685 12.734-7.825 16.524-7.3 5.28-13.32 12.29-17.42 20.29-4.11 8.021-6.29 17.021-6.29 26.021 0 2.63 1.07 5.21 2.93 7.069 1.86 1.86 4.715 2.931 7.345 2.931 5.51 0 10.275-4.49 10.275-10 0-.99-.127-5.724.141-7.097 1.794-9.19 7.021-17.418 14.739-23.004 4.98-3.58 9.09-8.39 11.88-13.92 2.8-5.56 4.24-13.01 4.21-19.34-.59-10.42-5.07-21.37-12.56-28.71-7.56-7.408-18.223-11.645-28.793-11.925z"/></g></svg>